<svg width="168" height="63" viewBox="0 0 168 63" fill="none" xmlns="http://www.w3.org/2000/svg">
<path d="M44.8715 62.6036V47.5103C44.8715 43.9744 42.56 41.288 39.0905 41.288C35.7254 41.288 33.5516 43.8699 33.5516 47.2351V62.5988H28.9286V47.2351C28.9286 40.9794 32.906 36.8312 39.1617 36.8312C45.4505 36.8312 49.4944 40.875 49.4944 47.2351V62.5988H44.8715V62.6036Z" fill="#020203"/>
<path d="M54.5587 37.4483C57.6533 37.3486 61.6971 37.2109 64.7205 37.2109C70.3306 37.2109 74.0328 39.7265 74.0328 43.9744C74.0328 46.5564 72.7086 48.4597 70.53 49.5513C73.5202 50.4674 75.1861 52.5415 75.1861 55.6361C75.1861 60.1593 71.6501 62.841 64.8866 62.841C61.7921 62.841 57.6438 62.7033 54.554 62.6036V37.4483H54.5587ZM59.1816 47.9518H64.6541C67.3737 47.9518 69.277 46.7273 69.277 44.6531C69.277 42.5126 67.5113 41.4589 64.3835 41.4589C62.784 41.4589 60.7811 41.4589 59.1816 41.5585V47.9518ZM59.1816 58.4221C60.8143 58.5598 62.9549 58.6262 64.5544 58.6262C68.3609 58.6262 70.3354 57.5061 70.3354 55.1567C70.3354 52.7408 68.2613 51.5543 65.0005 51.5543H59.1863V58.4221H59.1816Z" fill="#020203"/>
<path d="M111.904 37.4482V47.8854H115.539L122.644 37.4482H127.846L119.55 49.5845L128.321 62.6036H122.882L115.848 52.1333H111.904V62.6036H107.281V37.4482H111.904Z" fill="#020203"/>
<path d="M24.7994 47.1165C24.4197 44.0219 23.3613 41.8433 22.094 40.3767L22.0988 40.372C21.9184 40.1632 21.7238 39.9686 21.5245 39.774C21.4533 39.7028 21.3773 39.6316 21.3061 39.5651C21.2634 39.5271 21.2207 39.4844 21.178 39.4465C20.6986 39.0145 20.2335 38.6776 19.8158 38.4165C17.8651 37.1682 15.4634 36.4943 12.815 36.4943C5.26839 36.4943 0 41.9003 0 49.5798C0 57.2973 5.23517 62.5989 12.815 62.5989C16.6548 62.5989 19.9867 61.2415 22.3313 58.7592L19.0327 55.3608C17.7084 57.0932 15.4967 58.1469 12.9479 58.1469C8.76641 58.1469 5.33483 55.2896 4.95987 51.4831H24.8516C24.8611 51.4878 24.9988 48.7824 24.7994 47.1165ZM12.6821 40.951C14.2721 40.951 15.734 41.3497 16.9395 42.0996C17.941 42.7262 18.7241 43.6422 19.1988 44.7196C19.5263 45.4553 19.7968 46.3761 19.925 47.5104H5.00259C5.44399 43.5995 8.53385 40.951 12.6821 40.951Z" fill="#020203"/>
<path d="M103.223 47.1165C102.843 44.0219 101.784 41.8433 100.517 40.3767L100.522 40.372C100.342 40.1632 100.147 39.9686 99.9476 39.774C99.8764 39.7028 99.8004 39.6316 99.7292 39.5651C99.6865 39.5271 99.6438 39.4844 99.6011 39.4465C99.1217 39.0145 98.6566 38.6776 98.2389 38.4165C96.2882 37.1682 93.8865 36.4943 91.2381 36.4943C83.6915 36.4943 78.4231 41.9003 78.4231 49.5798C78.4231 57.2973 83.6583 62.5989 91.2381 62.5989C95.0779 62.5989 98.4098 61.2415 100.754 58.7592L97.4558 55.3608C96.1315 57.0932 93.9198 58.1469 91.371 58.1469C87.1895 58.1469 83.7579 55.2896 83.383 51.4831H103.275C103.284 51.4878 103.427 48.7824 103.223 47.1165ZM91.11 40.951C92.7 40.951 94.1618 41.3497 95.3674 42.0996C96.3689 42.7262 97.152 43.6422 97.6266 44.7196C97.9541 45.4553 98.2247 46.3761 98.3528 47.5104H83.4304C83.8671 43.5995 86.9617 40.951 91.11 40.951Z" fill="#020203"/>
<path d="M7.16214 21.1922C6.3173 20.3189 5.57687 19.9535 4.71305 19.9535C3.95839 19.9535 3.04709 20.2477 3.04709 21.1353C3.04709 22.17 4.36657 22.3741 5.70977 22.7633C7.04348 23.1525 8.37244 23.7173 8.37244 25.5446C8.37244 27.4289 6.92008 28.6249 4.72729 28.6249C3.16575 28.6249 1.68965 28.0459 0.730896 27.0397L1.8178 25.6253C2.67688 26.4749 3.75429 26.9163 4.72254 26.9163C5.51517 26.9163 6.43121 26.5935 6.43121 25.6917C6.43121 24.6428 5.11174 24.3723 3.78278 23.9831C2.44907 23.5511 1.13433 23.0006 1.13433 21.2397C1.13433 19.4503 2.52025 18.297 4.64659 18.297C6.15117 18.297 7.45641 18.876 8.31549 19.8443L7.16214 21.1922Z" fill="#9075AA"/>
<path d="M12.0841 18.4868V22.6161H13.5222L16.332 18.4868H18.3919L15.1075 23.2901L18.577 28.4398H16.427L13.6456 24.2963H12.0841V28.4398H10.2568V18.4868H12.0841Z" fill="#9075AA"/>
<path d="M25.1649 18.4868V20.0863H23.2189V26.8403H25.1649V28.4398H19.4361V26.8403H21.3868V20.0863H19.4361V18.4868H25.1649Z" fill="#9075AA"/>
<path d="M28.9429 18.4868V26.7549H32.9393V28.4398H27.1156V18.4868H28.9429Z" fill="#9075AA"/>
<path d="M36.3804 18.4868V26.7549H40.372V28.4398H34.5483V18.4868H36.3804Z" fill="#9075AA"/>
<path d="M47.7525 21.1922C46.9077 20.3189 46.1673 19.9535 45.3034 19.9535C44.5488 19.9535 43.6375 20.2477 43.6375 21.1353C43.6375 22.17 44.9569 22.3741 46.3002 22.7633C47.6339 23.1525 48.9628 23.7173 48.9628 25.5446C48.9628 27.4289 47.5105 28.6249 45.3177 28.6249C43.7561 28.6249 42.28 28.0459 41.3213 27.0397L42.4082 25.6253C43.2673 26.4749 44.3447 26.9163 45.3129 26.9163C46.1056 26.9163 47.0216 26.5935 47.0216 25.6917C47.0216 24.6428 45.7021 24.3723 44.3732 23.9831C43.0394 23.5511 41.7247 23.0006 41.7247 21.2397C41.7247 19.4503 43.1106 18.297 45.237 18.297C46.7416 18.297 48.0468 18.876 48.9059 19.8443L47.7525 21.1922Z" fill="#9075AA"/>
<path d="M168 30.3146H137.685V60.6292H168V30.3146Z" fill="url(#paint0_linear_148_5339)"/>
<path d="M168 0H137.685V30.3146H168V0Z" fill="url(#paint1_linear_148_5339)"/>
<path d="M137.69 0H107.375V30.3146H137.69V0Z" fill="url(#paint2_linear_148_5339)"/>
<defs>
<linearGradient id="paint0_linear_148_5339" x1="137.754" y1="45.4491" x2="168.075" y2="45.4491" gradientUnits="userSpaceOnUse">
<stop stop-color="#A893C1"/>
<stop offset="1" stop-color="#CEC4DF"/>
</linearGradient>
<linearGradient id="paint1_linear_148_5339" x1="152.832" y1="30.7062" x2="152.832" y2="1.67434" gradientUnits="userSpaceOnUse">
<stop stop-color="#A893C1"/>
<stop offset="1" stop-color="#CEC4DF"/>
</linearGradient>
<linearGradient id="paint2_linear_148_5339" x1="137.321" y1="15.1366" x2="109.271" y2="15.1366" gradientUnits="userSpaceOnUse">
<stop stop-color="#A893C1"/>
<stop offset="1" stop-color="#CEC4DF"/>
</linearGradient>
</defs>
</svg>