<svg width="59" height="59" viewBox="0 0 59 59" fill="none" xmlns="http://www.w3.org/2000/svg">
<path d="M43.5701 0H6.90254C4.93918 0 3.3418 1.59738 3.3418 3.56074V14.521C3.3418 14.9983 3.72875 15.3853 4.20605 15.3853C4.68336 15.3853 5.07031 14.9983 5.07031 14.521V6.62091C5.57827 6.92582 6.16838 7.1065 6.79883 7.12287V25.9523C6.16838 25.9686 5.57827 26.1493 5.07031 26.4542V18.5541C5.07031 18.0768 4.68336 17.6899 4.20605 17.6899C3.72875 17.6899 3.3418 18.0768 3.3418 18.5541V55.4393C3.3418 57.4026 4.93918 59 6.90254 59H43.5701C45.5335 59 47.1309 57.4026 47.1309 55.4393V3.56074C47.1309 1.59738 45.5335 0 43.5701 0V0ZM43.5808 57.2463C42.5765 57.2463 41.7593 56.4291 41.7593 55.4247C41.7593 54.4204 42.5765 53.6032 43.5808 53.6032C44.5852 53.6032 45.4023 54.4204 45.4023 55.4249C45.4023 56.4291 44.5852 57.2463 43.5808 57.2463ZM43.6738 51.8771V43.9019C43.6738 43.4246 43.2869 43.0376 42.8096 43.0376C42.3323 43.0376 41.9453 43.4246 41.9453 43.9019V52.2756C41.2904 52.6172 40.7551 53.1566 40.4186 53.8146H22.5859C22.1086 53.8146 21.7217 54.2015 21.7217 54.6788C21.7217 55.1561 22.1086 55.5431 22.5859 55.5431H40.0338C40.0545 56.1745 40.2402 56.7648 40.5502 57.2716H9.92249C10.2325 56.7648 10.418 56.1745 10.4389 55.5431H18.5527C19.03 55.5431 19.417 55.1561 19.417 54.6788C19.417 54.2015 19.03 53.8146 18.5527 53.8146H10.0541C9.71771 53.1566 9.18234 52.6172 8.52734 52.2756V32.6492C9.66378 32.0567 10.4418 30.8678 10.4418 29.5C10.4418 28.1322 9.66378 26.9433 8.52734 26.3508V6.7245C9.18222 6.38295 9.7176 5.84353 10.0541 5.18555H40.4187C40.7551 5.84353 41.2904 6.38295 41.9454 6.7245V26.3508C40.809 26.9433 40.0309 28.1322 40.0309 29.5C40.0309 30.8678 40.8091 32.0567 41.9454 32.6492V39.8686C41.9454 40.3459 42.3324 40.7328 42.8097 40.7328C43.287 40.7328 43.6739 40.3459 43.6739 39.8686V33.0476C44.3044 33.0312 44.8945 32.8506 45.4025 32.5456V52.3791C44.8944 52.0742 44.3043 51.8935 43.6738 51.8771ZM8.71333 55.4249C8.71333 56.4292 7.8962 57.2464 6.89182 57.2464C5.88744 57.2464 5.07031 56.4291 5.07031 55.4249C5.07031 54.4205 5.88744 53.6033 6.89182 53.6033C7.8962 53.6033 8.71333 54.4204 8.71333 55.4249ZM6.79883 51.8771C6.16838 51.8935 5.57827 52.0742 5.07031 52.3791V32.5456C5.57827 32.8506 6.16838 33.0312 6.79883 33.0476V51.8771ZM43.5808 5.39677C42.5765 5.39677 41.7593 4.57964 41.7593 3.57526C41.7593 2.57088 42.5765 1.75375 43.5808 1.75375C44.5852 1.75375 45.4023 2.57088 45.4023 3.57515C45.4023 4.57964 44.5852 5.39677 43.5808 5.39677ZM40.0338 3.45703H10.4389C10.4181 2.82566 10.2325 2.23532 9.92249 1.72852H40.5501C40.2402 2.23532 40.0545 2.82566 40.0338 3.45703ZM43.5808 31.3215C42.5765 31.3215 41.7593 30.5044 41.7593 29.5C41.7593 28.4956 42.5765 27.6785 43.5808 27.6785C44.5852 27.6785 45.4023 28.4956 45.4023 29.5C45.4023 30.5044 44.5852 31.3215 43.5808 31.3215ZM43.6738 25.9523V7.12287C44.3043 7.1065 44.8944 6.92582 45.4023 6.62091V26.4544C44.8944 26.1494 44.3043 25.9686 43.6738 25.9523ZM5.07031 3.57515C5.07031 2.57076 5.88744 1.75364 6.89182 1.75364C7.8962 1.75364 8.71333 2.57076 8.71333 3.57515C8.71333 4.57953 7.8962 5.39666 6.89182 5.39666C5.88744 5.39666 5.07031 4.57964 5.07031 3.57515ZM6.89182 27.6785C7.8962 27.6785 8.71333 28.4956 8.71333 29.5C8.71333 30.5044 7.8962 31.3215 6.89182 31.3215C5.88744 31.3215 5.07031 30.5044 5.07031 29.5C5.07031 28.4956 5.88744 27.6785 6.89182 27.6785Z" fill="#00604A"/>
<path d="M31.3173 10.9353C30.5269 10.9353 29.8099 11.2545 29.2877 11.7704C28.7654 11.2545 28.0483 10.9353 27.258 10.9353C26.4696 10.9353 25.7542 11.253 25.2323 11.7666C24.7104 11.2529 23.9951 10.9353 23.2066 10.9353C22.4182 10.9353 21.7028 11.253 21.1808 11.7666C20.6589 11.2529 19.9435 10.9353 19.1551 10.9353C17.5615 10.9353 16.2651 12.2317 16.2651 13.8253C16.2651 15.1538 17.1664 16.275 18.3894 16.6115C18.3278 16.8459 18.2948 17.0917 18.2948 17.3452C18.2948 18.6714 19.1929 19.7911 20.4128 20.1297C20.3526 20.3616 20.3206 20.6046 20.3206 20.8549C20.3206 22.1809 21.2186 23.3004 22.4381 23.6392C22.3782 23.8706 22.3463 24.113 22.3463 24.3629C22.3463 25.9564 23.6427 27.2528 25.2362 27.2528C26.8298 27.2528 28.1262 25.9564 28.1262 24.3629C28.1262 24.113 28.0943 23.8706 28.0344 23.6392C29.2539 23.3004 30.1519 22.1809 30.1519 20.8549C30.1519 20.6045 30.1198 20.3615 30.0597 20.1297C31.2795 19.7911 32.1777 18.6714 32.1777 17.3452C32.1777 17.0918 32.1447 16.8459 32.0831 16.6115C33.3061 16.275 34.2074 15.1537 34.2074 13.8253C34.2074 12.2318 32.9109 10.9353 31.3173 10.9353ZM25.2362 18.5068C24.5958 18.5068 24.0748 17.9858 24.0748 17.3452C24.0748 16.7047 24.5958 16.1838 25.2362 16.1838C25.8767 16.1838 26.3977 16.7047 26.3977 17.3452C26.3977 17.9858 25.8767 18.5068 25.2362 18.5068ZM27.258 12.6638C27.8985 12.6638 28.4196 13.1848 28.4196 13.8253C28.4196 14.4657 27.8986 14.9868 27.258 14.9868C26.6176 14.9868 26.0966 14.4659 26.0966 13.8253C26.0966 13.1849 26.6177 12.6638 27.258 12.6638ZM23.2066 12.6638C23.8471 12.6638 24.3681 13.1848 24.3681 13.8253C24.3681 14.4657 23.8471 14.9868 23.2066 14.9868C22.5662 14.9868 22.0451 14.4659 22.0451 13.8253C22.0452 13.1849 22.5662 12.6638 23.2066 12.6638ZM17.9937 13.8254C17.9937 13.1849 18.5146 12.6639 19.1551 12.6639C19.7956 12.6639 20.3165 13.1849 20.3165 13.8254C20.3165 14.4659 19.7956 14.9869 19.1551 14.9869C18.5146 14.9869 17.9937 14.4659 17.9937 13.8254ZM20.0233 17.3452C20.0233 16.7047 20.5443 16.1838 21.1847 16.1838C21.8252 16.1838 22.3463 16.7047 22.3463 17.3452C22.3463 17.9857 21.8253 18.5068 21.1847 18.5068C20.5444 18.5068 20.0233 17.9858 20.0233 17.3452ZM22.049 20.855C22.049 20.2145 22.57 19.6936 23.2105 19.6936C23.851 19.6936 24.372 20.2145 24.372 20.855C24.372 21.4955 23.851 22.0165 23.2105 22.0165C22.5701 22.0165 22.049 21.4954 22.049 20.855ZM25.2362 25.5244C24.5958 25.5244 24.0748 25.0035 24.0748 24.363C24.0748 23.7225 24.5958 23.2014 25.2362 23.2014C25.8767 23.2014 26.3977 23.7224 26.3977 24.363C26.3977 25.0035 25.8767 25.5244 25.2362 25.5244ZM27.262 22.0165C26.6215 22.0165 26.1005 21.4955 26.1005 20.855C26.1005 20.2145 26.6215 19.6936 27.262 19.6936C27.9024 19.6936 28.4235 20.2145 28.4235 20.855C28.4235 21.4955 27.9024 22.0165 27.262 22.0165ZM29.2878 18.5068C28.6473 18.5068 28.1262 17.9858 28.1262 17.3452C28.1262 16.7047 28.6472 16.1838 29.2878 16.1838C29.9282 16.1838 30.4492 16.7047 30.4492 17.3452C30.4492 17.9858 29.9281 18.5068 29.2878 18.5068ZM31.3173 14.9868C30.6768 14.9868 30.1558 14.4659 30.1558 13.8253C30.1558 13.1848 30.6768 12.6638 31.3173 12.6638C31.9578 12.6638 32.4787 13.1848 32.4787 13.8253C32.4788 14.4659 31.9578 14.9868 31.3173 14.9868Z" fill="#00604A"/>
<path d="M53.1807 13.0215C51.8146 13.0215 50.7031 14.1329 50.7031 15.499V57.6748C50.7031 58.4055 51.2976 59 52.0283 59H54.333C55.0637 59 55.6582 58.4055 55.6582 57.6748V51.5098C55.6582 51.0325 55.2712 50.6455 54.7939 50.6455C54.3166 50.6455 53.9297 51.0325 53.9297 51.5098V57.2715H52.4316V42.291H53.9297V47.4766C53.9297 47.9539 54.3166 48.3408 54.7939 48.3408C55.2712 48.3408 55.6582 47.9539 55.6582 47.4766V15.499C55.6582 14.1329 54.5468 13.0215 53.1807 13.0215ZM53.1807 14.75C53.5937 14.75 53.9297 15.086 53.9297 15.499V16.8242H52.4316V15.499C52.4316 15.086 52.7677 14.75 53.1807 14.75ZM52.4316 40.5625V18.5527H53.9297V40.5625H52.4316Z" fill="#00604A"/>
<path d="M25.2362 42.2733C23.6426 42.2733 22.3462 43.5696 22.3462 45.1633C22.3462 46.7569 23.6426 48.0533 25.2362 48.0533C26.8297 48.0533 28.1261 46.7569 28.1261 45.1633C28.1261 43.5696 26.8297 42.2733 25.2362 42.2733ZM25.2362 46.3247C24.5957 46.3247 24.0747 45.8037 24.0747 45.1632C24.0747 44.5227 24.5957 44.0017 25.2362 44.0017C25.8766 44.0017 26.3976 44.5226 26.3976 45.1632C26.3976 45.8037 25.8766 46.3247 25.2362 46.3247Z" fill="#00604A"/>
</svg>
