<svg width="61" height="64" viewBox="0 0 61 64" fill="none" xmlns="http://www.w3.org/2000/svg">
<g clip-path="url(#clip0)">
<path d="M16.0863 42.5567C16.9444 42.556 17.7909 42.3576 18.56 41.9768C19.329 41.5961 20 41.0433 20.5209 40.3613C21.0415 41.0433 21.7124 41.5961 22.4814 41.9765C23.2505 42.3569 24.0969 42.5549 24.9549 42.5549C25.8128 42.5549 26.6593 42.3569 27.4283 41.9765C28.1973 41.5961 28.8682 41.0433 29.3888 40.3613C29.9094 41.0433 30.5803 41.5961 31.3493 41.9765C32.1183 42.3569 32.9648 42.5549 33.8227 42.5549C34.6807 42.5549 35.5271 42.3569 36.2962 41.9765C37.0652 41.5961 37.7361 41.0433 38.2567 40.3613C38.817 41.093 39.5495 41.6748 40.3889 42.055C41.2284 42.4353 42.1488 42.6021 43.0683 42.5408C43.9878 42.4795 44.878 42.1919 45.6595 41.7036C46.441 41.2153 47.0898 40.5413 47.548 39.7418C48.0062 38.9422 48.2598 38.0418 48.2861 37.1207C48.3124 36.1995 48.1106 35.2861 47.6987 34.4617C47.2868 33.6373 46.6775 32.9275 45.9251 32.3954C45.1727 31.8633 44.3004 31.5254 43.3859 31.4118C43.7336 30.6164 43.8911 29.7509 43.846 28.8841C43.8008 28.0172 43.5543 27.1728 43.1258 26.4178C42.6974 25.6629 42.0989 25.0182 41.3779 24.5349C40.6568 24.0516 39.833 23.743 38.9719 23.6336C39.31 22.8398 39.4597 21.9784 39.4093 21.117C39.359 20.2556 39.1099 19.4176 38.6816 18.6686C38.2533 17.9195 37.6574 17.2798 36.9406 16.7994C36.2238 16.3191 35.4055 16.0113 34.5499 15.8999C34.9064 15.0494 35.0471 14.1239 34.9596 13.2058C34.8721 12.2877 34.559 11.4055 34.0482 10.6376C33.5375 9.86969 32.8448 9.23993 32.0319 8.80434C31.219 8.36874 30.3111 8.14081 29.3888 8.14081C28.4665 8.14081 27.5586 8.36874 26.7457 8.80434C25.9328 9.23993 25.2401 9.86969 24.7294 10.6376C24.2186 11.4055 23.9055 12.2877 23.818 13.2058C23.7305 14.1239 23.8712 15.0494 24.2277 15.8999C23.3721 16.0113 22.5538 16.3191 21.837 16.7994C21.1202 17.2798 20.5243 17.9195 20.096 18.6686C19.6677 19.4176 19.4186 20.2556 19.3683 21.117C19.3179 21.9784 19.4676 22.8398 19.8057 23.6336C18.9446 23.743 18.1208 24.0516 17.3997 24.5349C16.6787 25.0182 16.0802 25.6629 15.6517 26.4178C15.2233 27.1728 14.9767 28.0172 14.9316 28.8841C14.8865 29.7509 15.044 30.6164 15.3917 31.4118C13.9791 31.5883 12.6869 32.2967 11.7785 33.3927C10.87 34.4887 10.4135 35.8898 10.5021 37.3106C10.5906 38.7315 11.2175 40.0651 12.2551 41.0398C13.2926 42.0145 14.6627 42.557 16.0863 42.5567ZM29.3888 25.9074C30.0361 25.9072 30.6688 26.099 31.2071 26.4586C31.7453 26.8181 32.1649 27.3291 32.4127 27.9271C32.6605 28.525 32.7254 29.183 32.5992 29.8179C32.473 30.4527 32.1613 31.0359 31.7037 31.4936C31.2461 31.9514 30.663 32.2631 30.0281 32.3894C29.3933 32.5158 28.7353 32.451 28.1373 32.2033C27.5393 31.9557 27.0281 31.5362 26.6685 30.998C26.3089 30.4599 26.117 29.8271 26.117 29.1799C26.1177 28.3123 26.4626 27.4804 27.076 26.8669C27.6894 26.2533 28.5212 25.9082 29.3888 25.9074ZM24.9549 40.2325C24.3076 40.2326 23.6748 40.0408 23.1366 39.6813C22.5983 39.3218 22.1788 38.8108 21.931 38.2128C21.6832 37.6148 21.6183 36.9568 21.7445 36.322C21.8707 35.6871 22.1823 35.104 22.6399 34.6462C23.0976 34.1885 23.6807 33.8768 24.3155 33.7504C24.9503 33.6241 25.6084 33.6889 26.2064 33.9366C26.8044 34.1842 27.3155 34.6037 27.6751 35.1418C28.0347 35.68 28.2267 36.3127 28.2267 36.96C28.2258 37.8276 27.8808 38.6593 27.2675 39.2728C26.6541 39.8863 25.8224 40.2315 24.9549 40.2325ZM33.8227 40.2325C33.1754 40.2332 32.5423 40.0418 32.0037 39.6826C31.4651 39.3234 31.0452 38.8126 30.797 38.2146C30.5488 37.6167 30.4835 36.9586 30.6094 36.3236C30.7353 35.6886 31.0467 35.1052 31.5042 34.6472C31.9618 34.1892 32.5449 33.8772 33.1798 33.7506C33.8147 33.6241 34.4728 33.6887 35.071 33.9363C35.6692 34.1839 36.1804 34.6033 36.5402 35.1416C36.8999 35.6798 37.0919 36.3126 37.0919 36.96C37.091 37.8271 36.7464 38.6585 36.1336 39.2719C35.5208 39.8853 34.6898 40.2308 33.8227 40.2325ZM45.9631 36.96C45.9633 37.6073 45.7714 38.2401 45.4119 38.7784C45.0524 39.3166 44.5413 39.7362 43.9433 39.9839C43.3453 40.2317 42.6872 40.2966 42.0524 40.1703C41.4175 40.0441 40.8343 39.7324 40.3766 39.2747C39.9189 38.817 39.6072 38.2338 39.481 37.5989C39.3547 36.9641 39.4196 36.306 39.6674 35.708C39.9151 35.11 40.3347 34.599 40.8729 34.2394C41.4112 33.8799 42.044 33.688 42.6913 33.6882C43.5587 33.6892 44.3903 34.0343 45.0037 34.6476C45.617 35.261 45.9621 36.0926 45.9631 36.96ZM41.5292 29.1799C41.5292 29.8271 41.3373 30.4598 40.9777 30.998C40.6181 31.5361 40.107 31.9556 39.509 32.2033C38.911 32.4509 38.2531 32.5157 37.6183 32.3895C36.9834 32.2632 36.4003 31.9515 35.9427 31.4939C35.485 31.0362 35.1733 30.4531 35.0471 29.8183C34.9208 29.1835 34.9856 28.5255 35.2333 27.9275C35.481 27.3296 35.9004 26.8185 36.4386 26.4589C36.9767 26.0993 37.6094 25.9074 38.2567 25.9074C39.1243 25.9084 39.956 26.2535 40.5695 26.867C41.183 27.4805 41.5281 28.3123 41.5292 29.1799ZM37.0919 21.4435C37.0918 22.0906 36.8998 22.7231 36.5402 23.2611C36.1806 23.7991 35.6696 24.2183 35.0717 24.4658C34.4738 24.7134 33.816 24.7781 33.1814 24.6518C32.5467 24.5254 31.9638 24.2138 31.5063 23.7562C31.0488 23.2986 30.7373 22.7156 30.6111 22.0809C30.4849 21.4463 30.5497 20.7885 30.7974 20.1906C31.045 19.5928 31.4644 19.0819 32.0024 18.7224C32.5405 18.3629 33.173 18.171 33.8201 18.171C34.6876 18.1721 35.5193 18.5172 36.1327 19.1307C36.7461 19.7442 37.091 20.576 37.0919 21.4435ZM29.3888 10.4653C30.0359 10.4653 30.6685 10.6571 31.2065 11.0167C31.7446 11.3762 32.1639 11.8872 32.4116 12.485C32.6592 13.0829 32.724 13.7407 32.5978 14.3754C32.4715 15.0101 32.1599 15.5931 31.7023 16.0506C31.2448 16.5082 30.6618 16.8198 30.0271 16.9461C29.3924 17.0723 28.7346 17.0075 28.1367 16.7599C27.5389 16.5122 27.0279 16.0929 26.6684 15.5548C26.3089 15.0168 26.117 14.3842 26.117 13.7371C26.1178 12.8696 26.4628 12.0379 27.0762 11.4245C27.6896 10.8111 28.5213 10.4661 29.3888 10.4653ZM24.9549 18.1684C25.6021 18.1677 26.235 18.359 26.7736 18.7181C27.3121 19.0772 27.7321 19.5879 27.9804 20.1856C28.2286 20.7834 28.2941 21.4413 28.1684 22.0763C28.0427 22.7112 27.7316 23.2947 27.2743 23.7528C26.817 24.2109 26.2342 24.5231 25.5995 24.6499C24.9647 24.7768 24.3067 24.7125 23.7085 24.4654C23.1102 24.2182 22.5988 23.7991 22.2387 23.2613C21.8787 22.7234 21.6862 22.0908 21.6857 21.4435C21.6866 20.5765 22.0312 19.7451 22.644 19.1317C23.2568 18.5182 24.0878 18.1728 24.9549 18.171V18.1684ZM20.5209 25.9047C21.1681 25.9047 21.8009 26.0966 22.339 26.4562C22.8772 26.8158 23.2966 27.3269 23.5443 27.9249C23.792 28.5228 23.8568 29.1808 23.7305 29.8156C23.6043 30.4504 23.2926 31.0335 22.8349 31.4912C22.3772 31.9489 21.7941 32.2606 21.1593 32.3868C20.5245 32.5131 19.8666 32.4483 19.2686 32.2006C18.6706 31.9529 18.1595 31.5335 17.7999 30.9953C17.4403 30.4571 17.2484 29.8244 17.2484 29.1772C17.25 28.31 17.5954 27.4788 18.2088 26.8659C18.8223 26.2529 19.6537 25.9082 20.5209 25.9074V25.9047ZM16.0863 33.6882C16.7336 33.688 17.3664 33.8799 17.9047 34.2394C18.4429 34.599 18.8625 35.11 19.1102 35.708C19.358 36.306 19.4229 36.9641 19.2966 37.5989C19.1704 38.2338 18.8587 38.817 18.401 39.2747C17.9433 39.7324 17.3601 40.0441 16.7252 40.1703C16.0904 40.2966 15.4323 40.2317 14.8343 39.9839C14.2363 39.7362 13.7252 39.3166 13.3657 38.7784C13.0062 38.2401 12.8143 37.6073 12.8145 36.96C12.8155 36.0926 13.1606 35.261 13.7739 34.6476C14.3873 34.0343 15.2189 33.6892 16.0863 33.6882Z" fill="#00604A"/>
<path fill-rule="evenodd" clip-rule="evenodd" d="M57.178 49.2087C57.4907 49.3327 57.7753 49.5186 58.0145 49.7551C58.255 49.9902 58.4457 50.2713 58.5754 50.5816C58.7051 50.8919 58.7711 51.2251 58.7695 51.5614V55.4402C58.7695 56.1105 58.5034 56.7534 58.0296 57.2276C57.5558 57.7017 56.9131 57.9684 56.2428 57.9689H56.191L34.9675 57.5424C34.4184 57.3196 34.0311 56.781 34.0311 56.1519C34.0311 55.7932 34.157 55.464 34.367 55.2059L56.2414 55.6454C56.2942 55.6374 56.3444 55.6174 56.3882 55.5869C56.4078 55.568 56.4234 55.5453 56.4339 55.5202C56.4444 55.4951 56.4496 55.4681 56.4493 55.4408V51.5614C56.4494 51.5346 56.4442 51.5081 56.434 51.4833C56.4239 51.4585 56.4089 51.436 56.3901 51.417C56.3712 51.398 56.3488 51.3829 56.3241 51.3726C56.2994 51.3623 56.2729 51.3569 56.2461 51.3568H56.2414L12.8118 52.2288V54.7728L30.6299 55.1308C30.8789 55.3986 31.0311 55.7575 31.0311 56.1519C31.0311 56.7051 30.7317 57.1883 30.2861 57.4484L11.6457 57.0738H11.6251L4.75203 56.9356L2.47695 56.8898C1.81652 56.8733 1.18851 56.6001 0.726099 56.1283C0.263689 55.6564 0.00324564 55.023 0 54.3624V52.6398C0.00340798 51.9792 0.263883 51.3458 0.726241 50.8739C1.1886 50.402 1.81651 50.1286 2.47695 50.1117L4.75203 50.0666L6.34578 50.0347L56.1943 49.0333C56.5307 49.025 56.8652 49.0846 57.178 49.2087ZM5.94137 54.6347L10.4902 54.7263V52.2759L5.94137 52.3669V54.6347ZM2.3282 52.6398V54.3624C2.32836 54.4156 2.34925 54.4667 2.38645 54.5047C2.42365 54.5428 2.47422 54.5649 2.52742 54.5663L3.61649 54.5882V52.414L2.52742 52.436C2.47422 52.4373 2.42365 52.4594 2.38645 52.4975C2.34925 52.5355 2.32836 52.5866 2.3282 52.6398Z" fill="#00604A"/>
<path fill-rule="evenodd" clip-rule="evenodd" d="M48.6146 47.2928H10.1653C8.93687 47.2928 7.73007 46.9694 6.66621 46.3552C5.60235 45.7409 4.7189 44.8575 4.10466 43.7936C3.49042 42.7298 3.16703 41.523 3.16699 40.2945C3.16695 39.0661 3.49026 37.8592 4.10443 36.7953L8.91025 28.4713L11.3132 24.3093L12.5146 22.2283L13.3158 20.8406C13.7527 20.6192 14.2893 20.6159 14.7452 20.8791C15.1057 21.0872 15.3471 21.4225 15.4455 21.7955L6.11455 37.9574H6.10923C5.69571 38.6677 5.4772 39.4746 5.47584 40.2965C5.47447 41.1184 5.6903 41.9261 6.10146 42.6377C6.51262 43.3493 7.10452 43.9397 7.81722 44.349C8.52993 44.7584 9.33814 44.9721 10.16 44.9686H48.6092C49.4299 44.969 50.2363 44.7534 50.9472 44.3433C51.6581 43.9333 52.2485 43.3433 52.6591 42.6327C53.0697 41.9221 53.2859 41.1159 53.2861 40.2952C53.2862 39.4745 53.0703 38.6682 52.66 37.9574L33.4341 4.66134C33.0237 3.9509 32.4336 3.36098 31.723 2.95084C31.0124 2.5407 30.2064 2.32478 29.386 2.32478C28.5655 2.32478 27.7595 2.5407 27.0489 2.95084C26.3383 3.36098 25.7482 3.9509 25.3378 4.66134L17.3889 18.4294C17.0167 18.5306 16.6057 18.4892 16.2452 18.281C15.7893 18.0178 15.5238 17.5515 15.4971 17.0623L16.119 15.9853L18.5219 11.8233L23.3277 3.49923C23.942 2.43533 24.8254 1.55186 25.8894 0.937614C26.9533 0.323371 28.1601 0 29.3886 0C30.6171 0 31.824 0.323371 32.8879 0.937614C33.9518 1.55186 34.8353 2.43533 35.4495 3.49923L54.6754 36.7953C55.2948 37.8584 55.6222 39.0663 55.6246 40.2966C55.627 41.527 55.3043 42.7361 54.6891 43.8016C54.0739 44.8672 53.1881 45.7512 52.1214 46.3643C51.0547 46.9773 49.8449 47.2977 48.6146 47.2928Z" fill="#00604A"/>
</g>
<defs>
<clipPath id="clip0">
<rect width="61" height="64" fill="white"/>
</clipPath>
</defs>
</svg>
