<svg width="59" height="59" viewBox="0 0 59 59" fill="none" xmlns="http://www.w3.org/2000/svg">
<g clip-path="url(#clip0)">
<path d="M55.0415 47.6572C55.4446 46.8855 55.6739 46.0092 55.6739 45.0799V42.8626C55.6739 39.7818 53.1675 37.2754 50.0869 37.2754C47.0061 37.2754 44.4998 39.7818 44.4998 42.8626V45.0799C44.4998 46.0098 44.7294 46.8866 45.133 47.6587C44.4186 48.1381 43.7791 48.7162 43.2308 49.3777C42.6866 48.7228 42.0437 48.1428 41.3168 47.6572C41.7199 46.8855 41.9493 46.0091 41.9493 45.0798V42.8624C41.9493 39.7817 39.443 37.2753 36.3623 37.2753C33.2816 37.2753 30.7753 39.7817 30.7753 42.8624V45.0798C30.7753 46.009 31.0046 46.8854 31.4077 47.6571C30.6811 48.1423 30.0385 48.7219 29.4944 49.3763C28.9464 48.7151 28.3065 48.1377 27.5917 47.6582C27.9952 46.8862 28.2248 46.0095 28.2248 45.0798V42.8624C28.2248 39.7817 25.7185 37.2753 22.6378 37.2753C19.5572 37.2753 17.0508 39.7817 17.0508 42.8624V45.0798C17.0508 46.009 17.2801 46.8853 17.6832 47.657C16.9569 48.1421 16.3144 48.7215 15.7703 49.3756C15.2225 48.7144 14.5824 48.1376 13.8672 47.6581C14.2707 46.8861 14.5002 46.0094 14.5002 45.0797V42.8623C14.5002 39.7815 11.9939 37.2752 8.91323 37.2752C5.83245 37.2752 3.32611 39.7815 3.32611 42.8623V45.0797C3.32611 46.0089 3.55543 46.8853 3.95852 47.657C1.49205 49.3048 0 52.0481 0 55.058V57.8475C0 58.4838 0.516017 58.9998 1.15234 58.9998H57.8477C58.484 58.9998 59 58.4838 59 57.8475V55.058C59 52.0481 57.5081 49.3048 55.0415 47.6572ZM46.8044 42.8626C46.8044 41.0526 48.2769 39.5801 50.0869 39.5801C51.8967 39.5801 53.3692 41.0526 53.3692 42.8626V45.0799C53.3692 46.8898 51.8967 48.3622 50.0869 48.3622C48.2769 48.3622 46.8044 46.8898 46.8044 45.0799V42.8626ZM33.0799 42.8626C33.0799 41.0526 34.5523 39.5801 36.3622 39.5801C38.172 39.5801 39.6445 41.0526 39.6445 42.8626V45.0799C39.6445 46.8898 38.172 48.3622 36.3622 48.3622C34.5523 48.3622 33.0799 46.8898 33.0799 45.0799V42.8626ZM19.3554 42.8626C19.3554 41.0526 20.8278 39.5801 22.6377 39.5801C24.4476 39.5801 25.92 41.0526 25.92 42.8626V45.0799C25.92 46.8898 24.4476 48.3622 22.6377 48.3622C20.8278 48.3622 19.3554 46.8898 19.3554 45.0799V42.8626ZM5.63067 42.8626C5.63067 41.0526 7.10313 39.5801 8.91311 39.5801C10.723 39.5801 12.1954 41.0526 12.1954 42.8626V45.0799C12.1954 46.8898 10.723 48.3622 8.91311 48.3622C7.10313 48.3622 5.63067 46.8898 5.63067 45.0799V42.8626ZM2.30468 55.058C2.30468 52.7508 3.48974 50.6539 5.43478 49.4474C6.38995 50.2096 7.59887 50.667 8.91323 50.667C10.2272 50.667 11.4358 50.2099 12.3909 49.4479C13.2256 49.9674 13.9316 50.6614 14.4664 51.4905C13.9848 52.5934 13.7246 53.8024 13.7246 55.0581V56.6952H2.30468V55.058ZM16.0294 55.058C16.0294 52.7508 17.2143 50.6538 19.1595 49.4474C20.1147 50.2096 21.3236 50.667 22.6378 50.667C23.9518 50.667 25.1604 50.2099 26.1155 49.4479C26.9499 49.9672 27.6559 50.6617 28.1908 51.4908C27.7094 52.5936 27.4493 53.8025 27.4493 55.0581V56.6952H16.0294V55.058ZM29.7539 55.058C29.7539 52.7509 30.9388 50.6539 32.884 49.4474C33.8391 50.2098 35.048 50.667 36.3623 50.667C37.6765 50.667 38.8853 50.2098 39.8405 49.4475C41.7854 50.654 42.9707 52.7517 42.9707 55.0581V56.6952H29.7539V55.058ZM56.6953 56.6951H45.2754V55.058C45.2754 53.8029 45.0153 52.5939 44.5338 51.491C45.0689 50.662 45.7758 49.967 46.6092 49.4479C47.5643 50.2099 48.7729 50.667 50.0869 50.667C51.4012 50.667 52.61 50.2098 53.5652 49.4474C55.5104 50.6539 56.6953 52.7509 56.6953 55.058V56.6951Z" fill="#00604A"/>
<path d="M16.248 29.695H26.2393L27.8705 31.3262C28.3198 31.7753 28.9099 32 29.5001 32C30.0902 31.9999 30.6805 31.7753 31.1298 31.326L32.7608 29.695H42.7523C44.0231 29.695 45.057 28.6611 45.057 27.3903V3.19049C45.057 1.9198 44.0231 0.885925 42.7523 0.885925H16.248C14.9772 0.885925 13.9434 1.9198 13.9434 3.19049L14 13.5C14 14.1363 14.4594 14.8257 15.0957 14.8257C15.732 14.8257 16.248 14.1363 16.248 13.5V3.19049H42.7523V27.3904H32.2835C31.9779 27.3904 31.6849 27.5119 31.4687 27.7279L29.5002 29.6966L27.5315 27.7279C27.3153 27.5119 27.0223 27.3904 26.7167 27.3904H16.248V20.4765C16.248 19.8402 15.732 19.3242 15.0957 19.3242C14.4594 19.3242 13.9434 19.8402 13.9434 20.4765V27.3904C13.9434 28.6612 14.9772 29.695 16.248 29.695Z" fill="#00604A"/>
<path d="M37.5183 13.5259C37.741 12.2498 36.8842 11.0305 35.6109 10.8082L32.9036 10.3286L31.5593 7.85569C31.5591 7.85545 31.5589 7.85522 31.5588 7.85488C31.3391 7.45144 31.0083 7.12372 30.6026 6.90742C30.0499 6.61265 29.4158 6.55043 28.8161 6.73307C28.2168 6.91549 27.7243 7.32031 27.4293 7.87343L26.1366 10.3L23.4211 10.8048C22.9472 10.8806 22.5141 11.0967 22.1668 11.4306C21.2343 12.3277 21.2055 13.8162 22.1034 14.7498L24.0133 16.7305L23.6626 19.4034C23.5724 19.8936 23.6421 20.4078 23.8609 20.8571C24.2674 21.6915 25.1058 22.1776 25.9766 22.1775C26.3213 22.1775 26.6712 22.1014 27.0013 21.9406L29.4717 20.738L32.0139 21.9491C32.427 22.1462 32.8877 22.217 33.3466 22.1535C34.6284 21.9762 35.5272 20.7888 35.3498 19.5053L34.969 16.7807L36.837 14.8103C37.1969 14.4633 37.4321 14.02 37.5183 13.5259ZM35.2478 13.1298C35.2466 13.1373 35.2441 13.1455 35.235 13.1539C35.218 13.1699 35.2013 13.1864 35.185 13.2036L32.9148 15.5981C32.6735 15.8525 32.5612 16.203 32.6098 16.5503L33.0671 19.8228C33.0704 19.8461 33.0541 19.8677 33.0311 19.8708C33.0158 19.8728 33.0081 19.87 33.0061 19.869L29.9621 18.4189C29.6457 18.2681 29.2775 18.2695 28.9621 18.4231L25.9924 19.8686C25.9708 19.8794 25.9438 19.8703 25.9331 19.8482C25.9297 19.8411 25.9267 19.833 25.9294 19.8209C25.935 19.7934 25.9398 19.7657 25.9433 19.7378L26.3706 16.4801C26.4163 16.1323 26.301 15.7828 26.0577 15.5303L23.7636 13.1512C23.7474 13.1343 23.748 13.1077 23.7646 13.0917C23.7716 13.085 23.7777 13.0818 23.7863 13.0805C23.7994 13.0785 23.8127 13.0763 23.8258 13.0738L27.1034 12.4647C27.4482 12.4005 27.7449 12.1831 27.9099 11.8736L29.4632 8.95767C29.4657 8.95283 29.4711 8.94281 29.4873 8.93797C29.492 8.93647 29.4961 8.93589 29.4998 8.93589C29.5087 8.93589 29.5147 8.939 29.5181 8.94096C29.5248 8.94442 29.5301 8.94857 29.5348 8.95721L31.1438 11.9169C31.3113 12.2249 31.61 12.4401 31.9552 12.5011L35.2119 13.0781C35.2177 13.0791 35.23 13.0812 35.2404 13.0962C35.251 13.1114 35.249 13.1237 35.2478 13.1298Z" fill="#00604A"/>
</g>
<defs>
<clipPath id="clip0">
<rect width="59" height="59" fill="white"/>
</clipPath>
</defs>
</svg>
